<svg xmlns="http://www.w3.org/2000/svg" xmlns:xlink="http://www.w3.org/1999/xlink" width="100" zoomAndPan="magnify" viewBox="0 0 75 74.999997" height="100" preserveAspectRatio="xMidYMid meet" version="1.0"><defs><clipPath id="ab1cd2a5da"><path d="M 26.601562 28 L 48.351562 28 L 48.351562 52.878906 L 26.601562 52.878906 Z M 26.601562 28 " clip-rule="nonzero"/></clipPath><clipPath id="2cd006a311"><path d="M 28 22.128906 L 33 22.128906 L 33 27 L 28 27 Z M 28 22.128906 " clip-rule="nonzero"/></clipPath><clipPath id="25f5efef00"><path d="M 33 22.128906 L 38 22.128906 L 38 27 L 33 27 Z M 33 22.128906 " clip-rule="nonzero"/></clipPath><clipPath id="416bcd6818"><path d="M 37 22.128906 L 43 22.128906 L 43 27 L 37 27 Z M 37 22.128906 " clip-rule="nonzero"/></clipPath><clipPath id="fd75fb9704"><path d="M 43 22.128906 L 47 22.128906 L 47 27 L 43 27 Z M 43 22.128906 " clip-rule="nonzero"/></clipPath></defs><g clip-path="url(#ab1cd2a5da)"><path fill="#e44d26" d="M 48.34375 28.171875 L 46.363281 50.40625 L 37.464844 52.878906 L 28.59375 50.410156 L 26.617188 28.171875 Z M 48.34375 28.171875 " fill-opacity="1" fill-rule="nonzero"/></g><path fill="#f16529" d="M 37.480469 50.988281 L 44.671875 48.988281 L 46.363281 29.992188 L 37.480469 29.992188 Z M 37.480469 50.988281 " fill-opacity="1" fill-rule="nonzero"/><path fill="#ebebeb" d="M 33.632812 35.445312 L 37.480469 35.445312 L 37.480469 32.71875 L 30.660156 32.71875 L 30.722656 33.449219 L 31.394531 40.964844 L 37.480469 40.964844 L 37.480469 38.238281 L 33.878906 38.238281 Z M 33.632812 35.445312 " fill-opacity="1" fill-rule="nonzero"/><path fill="#ebebeb" d="M 34.246094 42.328125 L 31.515625 42.328125 L 31.894531 46.609375 L 37.46875 48.160156 L 37.480469 48.160156 L 37.480469 45.320312 L 37.46875 45.324219 L 34.4375 44.503906 Z M 34.246094 42.328125 " fill-opacity="1" fill-rule="nonzero"/><g clip-path="url(#2cd006a311)"><path fill="#000000" d="M 28.636719 22.128906 L 30.019531 22.128906 L 30.019531 23.5 L 31.285156 23.5 L 31.285156 22.128906 L 32.667969 22.128906 L 32.667969 26.277344 L 31.285156 26.277344 L 31.285156 24.886719 L 30.019531 24.886719 L 30.019531 26.277344 L 28.636719 26.277344 Z M 28.636719 22.128906 " fill-opacity="1" fill-rule="nonzero"/></g><g clip-path="url(#25f5efef00)"><path fill="#000000" d="M 34.484375 23.503906 L 33.269531 23.503906 L 33.269531 22.128906 L 37.085938 22.128906 L 37.085938 23.503906 L 35.867188 23.503906 L 35.867188 26.277344 L 34.484375 26.277344 Z M 34.484375 23.503906 " fill-opacity="1" fill-rule="nonzero"/></g><g clip-path="url(#416bcd6818)"><path fill="#000000" d="M 37.691406 22.128906 L 39.132812 22.128906 L 40.019531 23.585938 L 40.90625 22.128906 L 42.347656 22.128906 L 42.347656 26.277344 L 40.96875 26.277344 L 40.96875 24.222656 L 40.019531 25.695312 L 39.996094 25.695312 L 39.042969 24.222656 L 39.042969 26.277344 L 37.691406 26.277344 Z M 37.691406 22.128906 " fill-opacity="1" fill-rule="nonzero"/></g><g clip-path="url(#fd75fb9704)"><path fill="#000000" d="M 43.035156 22.128906 L 44.417969 22.128906 L 44.417969 24.90625 L 46.363281 24.90625 L 46.363281 26.277344 L 43.035156 26.277344 Z M 43.035156 22.128906 " fill-opacity="1" fill-rule="nonzero"/></g><path fill="#ffffff" d="M 37.472656 40.964844 L 40.820312 40.964844 L 40.503906 44.5 L 37.472656 45.324219 L 37.472656 48.160156 L 43.046875 46.609375 L 43.089844 46.148438 L 43.726562 38.96875 L 43.792969 38.238281 L 37.472656 38.238281 Z M 37.472656 40.964844 " fill-opacity="1" fill-rule="nonzero"/><path fill="#ffffff" d="M 37.472656 35.4375 L 37.472656 35.445312 L 44.042969 35.445312 L 44.097656 34.832031 L 44.21875 33.449219 L 44.285156 32.71875 L 37.472656 32.71875 Z M 37.472656 35.4375 " fill-opacity="1" fill-rule="nonzero"/></svg>