<svg xmlns="http://www.w3.org/2000/svg" xmlns:xlink="http://www.w3.org/1999/xlink" width="100" zoomAndPan="magnify" viewBox="0 0 75 74.999997" height="100" preserveAspectRatio="xMidYMid meet" version="1.0"><defs><clipPath id="e8072f132f"><path d="M 25 26 L 50 26 L 50 50.886719 L 25 50.886719 Z M 25 26 " clip-rule="nonzero"/></clipPath><clipPath id="d34918a8f5"><path d="M 22.5 23.886719 L 52.5 23.886719 L 52.5 41 L 22.5 41 Z M 22.5 23.886719 " clip-rule="nonzero"/></clipPath><clipPath id="d312195869"><path d="M 24 41 L 52.5 41 L 52.5 48 L 24 48 Z M 24 41 " clip-rule="nonzero"/></clipPath><clipPath id="82bc5fbdf2"><path d="M 22.5 45 L 52 45 L 52 50.886719 L 22.5 50.886719 Z M 22.5 45 " clip-rule="nonzero"/></clipPath><clipPath id="ff9f73ffb5"><path d="M 23 41 L 52.5 41 L 52.5 43 L 23 43 Z M 23 41 " clip-rule="nonzero"/></clipPath><clipPath id="8e350a0bd1"><path d="M 48 41 L 52.5 41 L 52.5 47 L 48 47 Z M 48 41 " clip-rule="nonzero"/></clipPath><clipPath id="4347d21f76"><path d="M 22.5 41 L 52.5 41 L 52.5 50.886719 L 22.5 50.886719 Z M 22.5 41 " clip-rule="nonzero"/></clipPath><clipPath id="900efd2f86"><path d="M 22.5 44 L 52.5 44 L 52.5 50.886719 L 22.5 50.886719 Z M 22.5 44 " clip-rule="nonzero"/></clipPath></defs><g clip-path="url(#e8072f132f)"><path fill="#e6e6e6" d="M 49.636719 38.222656 C 49.644531 34.484375 47.78125 30.800781 44.730469 28.601562 C 41.515625 26.21875 37.078125 25.601562 33.335938 27.035156 C 29.613281 28.394531 26.703125 31.683594 25.835938 35.523438 C 24.886719 39.4375 26.121094 43.773438 28.992188 46.617188 C 31.742188 49.425781 35.929688 50.726562 39.800781 49.972656 C 44.171875 49.210938 47.9375 45.832031 49.136719 41.597656 C 49.476562 40.507812 49.617188 39.363281 49.636719 38.222656 Z M 49.636719 38.222656 " fill-opacity="1" fill-rule="nonzero"/></g><g clip-path="url(#d34918a8f5)"><path stroke-linecap="square" transform="matrix(0.0794281, 0, 0, 0.0787785, 17.170373, 18.176423)" fill="none" stroke-linejoin="round" d="M 434.521509 224.613055 C 426.062602 169.424666 389.32537 120.731946 340.440753 94.798858 C 326.178642 87.261899 310.834577 81.60918 294.900356 78.386139 M 88.591538 190.349644 C 78.509701 215.78688 75.067122 243.257111 77.575287 270.281074 " stroke="#bfc1c6" stroke-width="10" stroke-opacity="1" stroke-miterlimit="4"/></g><path fill="#ffffff" d="M 35.800781 39.722656 C 37.664062 35.199219 37.550781 30.742188 35.800781 26.328125 C 42.15625 28.953125 46.347656 33.050781 46.746094 39.722656 Z M 35.800781 39.722656 " fill-opacity="1" fill-rule="nonzero"/><g clip-path="url(#d312195869)"><path fill="#ffffff" d="M 25.640625 45.796875 L 24.335938 41.835938 L 52.054688 41.835938 L 48.488281 46.078125 C 47.785156 46.648438 47.035156 47.089844 46.148438 47.136719 C 43.980469 47.640625 43.574219 46.144531 41.359375 45.882812 C 38.9375 46.242188 38.703125 47.246094 37.304688 47.246094 C 35.453125 46.519531 33.644531 45.8125 33.25 45.882812 C 32.09375 46.09375 30.855469 46.648438 29.617188 47.207031 C 28.25 47.300781 26.945312 46.527344 25.640625 45.796875 Z M 25.640625 45.796875 " fill-opacity="1" fill-rule="nonzero"/></g><g clip-path="url(#82bc5fbdf2)"><path fill="#e9f5ff" d="M 22.554688 46.515625 C 23.347656 46.140625 24.527344 45.648438 25.640625 45.796875 C 26.816406 46.503906 28.027344 47.144531 29.617188 47.207031 C 30.808594 46.761719 31.625 46.207031 33.25 45.882812 C 33.710938 45.902344 34.519531 46.105469 37.054688 47.234375 C 37.855469 47.082031 37.589844 47.4375 41.359375 45.882812 C 43.480469 46.332031 45.582031 48.246094 48.488281 46.078125 C 49.597656 45.671875 50.867188 46.105469 51.785156 46.417969 L 51.785156 49.433594 C 50.132812 48.929688 47.980469 48.816406 45.792969 50.328125 C 44.222656 50.644531 43.375 49.347656 41.359375 48.996094 C 39.402344 49.230469 38.753906 50.757812 37.304688 50.359375 C 35.761719 50.441406 35.523438 49.433594 33.25 48.996094 C 31.253906 49.433594 30.066406 50.886719 29.195312 50.359375 C 27.875 50.582031 27.0625 49.53125 25.546875 49.03125 C 24.601562 48.90625 23.386719 49.359375 22.554688 49.640625 Z M 22.554688 46.515625 " fill-opacity="1" fill-rule="nonzero"/></g><path fill="#a3d2fe" d="M 27.863281 39.722656 L 34.25 26.328125 L 34.25 39.722656 Z M 27.863281 39.722656 " fill-opacity="1" fill-rule="nonzero"/><g clip-path="url(#ff9f73ffb5)"><path stroke-linecap="round" transform="matrix(0.112805, 0, 0, 0.112059, 8.425656, 9.656533)" fill="none" stroke-linejoin="round" d="M 141.042851 287.164272 L 386.766438 287.164272 " stroke="#274a81" stroke-width="7.036" stroke-opacity="1" stroke-miterlimit="4"/></g><g clip-path="url(#8e350a0bd1)"><path stroke-linecap="round" transform="matrix(0.112805, 0, 0, 0.112059, 8.425656, 9.656533)" fill="none" stroke-linejoin="round" d="M 386.766438 287.164272 L 355.150649 325.020929 " stroke="#274a81" stroke-width="7.036" stroke-opacity="1" stroke-miterlimit="4"/></g><path stroke-linecap="round" transform="matrix(0.112805, 0, 0, 0.112059, 8.425656, 9.656533)" fill="none" stroke-linejoin="round" d="M 141.042851 287.164272 L 152.608758 322.511095 " stroke="#274a81" stroke-width="7.036" stroke-opacity="1" stroke-miterlimit="4"/><path stroke-linecap="round" transform="matrix(0.112805, 0, 0, 0.112059, 8.425656, 9.656533)" fill="none" stroke-linejoin="round" d="M 172.312355 268.305661 L 228.929895 268.305661 " stroke="#274a81" stroke-width="7.036" stroke-opacity="1" stroke-miterlimit="4"/><path stroke-linecap="round" transform="matrix(0.112805, 0, 0, 0.112059, 8.425656, 9.656533)" fill="none" stroke-linejoin="round" d="M 242.677395 268.305661 L 339.671725 268.305661 " stroke="#274a81" stroke-width="7.036" stroke-opacity="1" stroke-miterlimit="4"/><path stroke-linecap="round" transform="matrix(0.112805, 0, 0, 0.112059, 8.425656, 9.656533)" fill="none" stroke-linejoin="round" d="M 228.929895 148.774835 L 172.312355 268.305661 " stroke="#274a81" stroke-width="7.036" stroke-opacity="1" stroke-miterlimit="4"/><path stroke-linecap="round" transform="matrix(0.112805, 0, 0, 0.112059, 8.425656, 9.656533)" fill="none" stroke-linejoin="round" d="M 339.671725 268.305661 L 338.840642 260.218419 L 337.490132 252.131177 L 335.585567 244.113653 L 333.300088 236.200706 L 330.495182 228.566629 L 327.240107 221.071987 L 323.604118 213.751638 L 319.414073 206.710161 L 314.808488 199.877836 L 309.891246 193.324382 L 304.523834 187.119515 L 298.810137 181.263237 L 292.750156 175.720688 L 286.378518 170.631303 L 279.660596 165.960223 L 272.734903 161.602873 L 265.497554 157.698688 L 258.087062 154.282525 L 250.434172 151.319527 L 242.677395 148.774835 " stroke="#274a81" stroke-width="7.036" stroke-opacity="1" stroke-miterlimit="4"/><path stroke-linecap="round" transform="matrix(0.112805, 0, 0, 0.112059, 8.425656, 9.656533)" fill="none" stroke-linejoin="round" d="M 228.929895 268.305661 L 228.929895 148.774835 " stroke="#274a81" stroke-width="7.036" stroke-opacity="1" stroke-miterlimit="4"/><path stroke-linecap="round" transform="matrix(0.112805, 0, 0, 0.112059, 8.425656, 9.656533)" fill="none" stroke-linejoin="round" d="M 242.677395 268.305661 C 258.36409 232.401097 259.056659 184.64454 242.677395 148.774835 " stroke="#274a81" stroke-width="7.036" stroke-opacity="1" stroke-miterlimit="4"/><g clip-path="url(#4347d21f76)"><path stroke-linecap="round" transform="matrix(0.112805, 0, 0, 0.112059, 8.425656, 9.656533)" fill="none" stroke-linejoin="miter" d="M 128.784375 328.053644 C 135.43304 325.508952 142.774274 323.277989 148.176315 323.277989 C 160.815704 323.277989 171.446643 335.44371 184.120661 335.44371 C 196.760051 335.44371 207.39099 323.277989 220.065008 323.277989 C 232.704398 323.277989 243.335336 335.44371 256.009354 335.44371 C 268.648744 335.44371 279.279683 323.277989 291.953701 323.277989 C 304.593091 323.277989 315.224029 335.44371 327.898047 335.44371 C 340.537437 335.44371 351.168376 323.277989 363.842394 323.277989 C 368.690379 323.277989 375.096645 325.090646 381.191255 327.286751 " stroke="#274a81" stroke-width="7.036" stroke-opacity="1" stroke-miterlimit="4"/></g><g clip-path="url(#900efd2f86)"><path stroke-linecap="round" transform="matrix(0.112805, 0, 0, 0.112059, 8.425656, 9.656533)" fill="none" stroke-linejoin="miter" d="M 128.784375 355.836108 C 135.43304 353.291416 142.774274 351.060452 148.176315 351.060452 C 160.815704 351.060452 171.446643 363.226174 184.120661 363.226174 C 196.760051 363.226174 207.39099 351.060452 220.065008 351.060452 C 232.704398 351.060452 243.335336 363.226174 256.009354 363.226174 C 268.648744 363.226174 279.279683 351.060452 291.953701 351.060452 C 304.593091 351.060452 315.224029 363.226174 327.898047 363.226174 C 340.537437 363.226174 351.168376 351.060452 363.842394 351.060452 C 368.621122 351.060452 374.888874 352.803392 380.879599 354.964638 " stroke="#274a81" stroke-width="7.036" stroke-opacity="1" stroke-miterlimit="4"/></g></svg>