<svg xmlns="http://www.w3.org/2000/svg" xmlns:xlink="http://www.w3.org/1999/xlink" width="100" zoomAndPan="magnify" viewBox="0 0 75 74.999997" height="100" preserveAspectRatio="xMidYMid meet" version="1.0"><defs><clipPath id="b5791845ae"><path d="M 23.65625 23.65625 L 51.40625 23.65625 L 51.40625 51.40625 L 23.65625 51.40625 Z M 23.65625 23.65625 " clip-rule="nonzero"/></clipPath></defs><g clip-path="url(#b5791845ae)"><path fill="#e52d27" d="M 51.40625 47.1875 C 51.40625 49.515625 49.515625 51.40625 47.1875 51.40625 L 27.875 51.40625 C 25.546875 51.40625 23.65625 49.515625 23.65625 47.1875 L 23.65625 27.875 C 23.65625 25.546875 25.546875 23.65625 27.875 23.65625 L 47.1875 23.65625 C 49.515625 23.65625 51.40625 25.546875 51.40625 27.875 Z M 51.40625 47.1875 " fill-opacity="1" fill-rule="nonzero"/></g><path fill="#ffffff" d="M 47.367188 37.75 C 47.367188 39.285156 47.367188 40.910156 47.023438 42.398438 C 46.785156 43.445312 45.929688 44.210938 44.898438 44.328125 C 42.460938 44.597656 39.988281 44.601562 37.535156 44.597656 C 35.074219 44.597656 32.613281 44.597656 30.167969 44.328125 C 29.140625 44.210938 28.285156 43.445312 28.042969 42.398438 C 27.699219 40.910156 27.699219 39.285156 27.699219 37.75 C 27.699219 36.214844 27.703125 34.589844 28.042969 33.105469 C 28.285156 32.054688 29.136719 31.289062 30.167969 31.171875 C 32.613281 30.898438 35.078125 30.898438 37.535156 30.898438 C 39.988281 30.898438 42.453125 30.898438 44.898438 31.171875 C 45.925781 31.289062 46.785156 32.054688 47.023438 33.105469 C 47.367188 34.589844 47.367188 36.214844 47.367188 37.75 Z M 47.367188 37.75 " fill-opacity="1" fill-rule="nonzero"/><path fill="#e52d27" d="M 35.464844 34.09375 L 35.464844 41.441406 L 41.171875 37.765625 Z M 35.464844 34.09375 " fill-opacity="1" fill-rule="nonzero"/></svg>