<svg xmlns="http://www.w3.org/2000/svg" xmlns:xlink="http://www.w3.org/1999/xlink" width="100" zoomAndPan="magnify" viewBox="0 0 75 74.999997" height="100" preserveAspectRatio="xMidYMid meet" version="1.0"><defs><clipPath id="9a23051d92"><path d="M 23.507812 23.507812 L 51.257812 23.507812 L 51.257812 51.257812 L 23.507812 51.257812 Z M 23.507812 23.507812 " clip-rule="nonzero"/></clipPath><clipPath id="51b0d1a2c3"><path d="M 34 27 L 47 27 L 47 51.257812 L 34 51.257812 Z M 34 27 " clip-rule="nonzero"/></clipPath></defs><g clip-path="url(#9a23051d92)"><path fill="#3d5a98" d="M 49.726562 51.257812 C 50.570312 51.257812 51.257812 50.570312 51.257812 49.726562 L 51.257812 25.039062 C 51.257812 24.195312 50.570312 23.507812 49.726562 23.507812 L 25.039062 23.507812 C 24.195312 23.507812 23.507812 24.195312 23.507812 25.039062 L 23.507812 49.726562 C 23.507812 50.570312 24.195312 51.257812 25.039062 51.257812 Z M 49.726562 51.257812 " fill-opacity="1" fill-rule="nonzero"/></g><g clip-path="url(#51b0d1a2c3)"><path fill="#ffffff" d="M 42.65625 51.257812 L 42.65625 40.511719 L 46.261719 40.511719 L 46.800781 36.324219 L 42.65625 36.324219 L 42.65625 33.648438 C 42.65625 32.4375 42.992188 31.613281 44.730469 31.613281 L 46.949219 31.609375 L 46.949219 27.863281 C 46.5625 27.8125 45.246094 27.699219 43.714844 27.699219 C 40.519531 27.699219 38.332031 29.652344 38.332031 33.234375 L 38.332031 36.324219 L 34.714844 36.324219 L 34.714844 40.511719 L 38.332031 40.511719 L 38.332031 51.257812 Z M 42.65625 51.257812 " fill-opacity="1" fill-rule="nonzero"/></g></svg>