<svg xmlns="http://www.w3.org/2000/svg" xmlns:xlink="http://www.w3.org/1999/xlink" width="100" zoomAndPan="magnify" viewBox="0 0 75 74.999997" height="100" preserveAspectRatio="xMidYMid meet" version="1.0"><defs><clipPath id="03d0816dc4"><path d="M 22.890625 22.890625 L 52.140625 22.890625 L 52.140625 52.140625 L 22.890625 52.140625 Z M 22.890625 22.890625 " clip-rule="nonzero"/></clipPath></defs><g clip-path="url(#03d0816dc4)"><path fill="#2197bd" d="M 52.140625 47.695312 C 52.140625 50.148438 50.152344 52.140625 47.699219 52.140625 L 27.335938 52.140625 C 24.882812 52.140625 22.894531 50.148438 22.894531 47.695312 L 22.894531 27.335938 C 22.894531 24.878906 24.882812 22.890625 27.335938 22.890625 L 47.699219 22.890625 C 50.152344 22.890625 52.140625 24.878906 52.140625 27.335938 Z M 52.140625 47.695312 " fill-opacity="1" fill-rule="nonzero"/></g><path fill="#ffffff" d="M 34.457031 33.324219 C 34.457031 33.617188 34.402344 33.894531 34.292969 34.160156 C 34.183594 34.429688 34.023438 34.664062 33.820312 34.871094 C 33.613281 35.074219 33.378906 35.234375 33.109375 35.34375 C 32.84375 35.457031 32.5625 35.511719 32.273438 35.511719 C 31.984375 35.511719 31.707031 35.457031 31.4375 35.34375 C 31.171875 35.234375 30.933594 35.074219 30.730469 34.871094 C 30.523438 34.664062 30.367188 34.429688 30.253906 34.160156 C 30.144531 33.894531 30.089844 33.617188 30.089844 33.324219 C 30.089844 33.035156 30.144531 32.757812 30.253906 32.488281 C 30.367188 32.222656 30.523438 31.984375 30.730469 31.78125 C 30.933594 31.574219 31.171875 31.417969 31.4375 31.308594 C 31.707031 31.195312 31.984375 31.140625 32.273438 31.140625 C 32.5625 31.140625 32.84375 31.195312 33.109375 31.308594 C 33.378906 31.417969 33.613281 31.574219 33.820312 31.78125 C 34.023438 31.984375 34.183594 32.222656 34.292969 32.488281 C 34.402344 32.757812 34.457031 33.035156 34.457031 33.324219 Z M 34.457031 33.324219 " fill-opacity="1" fill-rule="nonzero"/><path fill="#ffffff" d="M 30.390625 37.121094 L 34.144531 37.121094 L 34.144531 49.195312 L 30.390625 49.195312 Z M 30.390625 37.121094 " fill-opacity="1" fill-rule="nonzero"/><path fill="#ffffff" d="M 36.503906 37.121094 L 40.078125 37.121094 L 40.078125 49.195312 L 36.503906 49.195312 Z M 36.503906 37.121094 " fill-opacity="1" fill-rule="nonzero"/><path fill="#ffffff" d="M 36.660156 43.550781 L 40.230469 43.550781 L 40.230469 49.195312 L 36.660156 49.195312 Z M 36.660156 43.550781 " fill-opacity="1" fill-rule="nonzero"/><path fill="#ffffff" d="M 40.230469 43.550781 C 40.230469 43.550781 40.175781 41.984375 40.589844 41.171875 C 40.589844 41.171875 41.003906 40.167969 42.300781 40.160156 C 42.300781 40.160156 43.824219 39.894531 44.261719 41.40625 C 44.261719 41.40625 44.425781 42.246094 44.425781 42.597656 C 44.425781 42.953125 44.4375 49.195312 44.4375 49.195312 L 48.179688 49.195312 L 48.179688 42.28125 C 48.179688 42.28125 48.449219 38.371094 46.105469 37.300781 C 46.105469 37.300781 42.25 35.570312 40.15625 38.75 C 40.15625 38.75 39.699219 39.066406 39.636719 38.183594 C 39.574219 37.300781 39.039062 39.539062 39.023438 39.585938 C 39.007812 39.632812 39.636719 44.039062 39.636719 44.039062 Z M 40.230469 43.550781 " fill-opacity="1" fill-rule="nonzero"/></svg>