<svg xmlns="http://www.w3.org/2000/svg" xmlns:xlink="http://www.w3.org/1999/xlink" width="100" zoomAndPan="magnify" viewBox="0 0 75 74.999997" height="100" preserveAspectRatio="xMidYMid meet" version="1.0"><defs><clipPath id="ed8d21bcb9"><path d="M 24.441406 19.699219 L 50.691406 19.699219 L 50.691406 54.949219 L 24.441406 54.949219 Z M 24.441406 19.699219 " clip-rule="nonzero"/></clipPath><clipPath id="40d9f5ad0e"><path d="M 41 19.699219 L 50.691406 19.699219 L 50.691406 29 L 41 29 Z M 41 19.699219 " clip-rule="nonzero"/></clipPath></defs><g clip-path="url(#ed8d21bcb9)"><path fill="#c64220" d="M 41.503906 19.699219 L 26.859375 19.699219 C 25.558594 19.699219 24.449219 20.796875 24.449219 22.074219 L 24.449219 52.574219 C 24.449219 53.855469 25.558594 54.949219 26.859375 54.949219 L 48.085938 54.949219 C 49.382812 54.949219 50.496094 53.855469 50.496094 52.574219 L 50.496094 28.558594 Z M 41.503906 19.699219 " fill-opacity="1" fill-rule="nonzero"/></g><g clip-path="url(#40d9f5ad0e)"><path fill="#221f1f" d="M 41.691406 19.699219 L 41.691406 28.558594 L 50.679688 28.558594 " fill-opacity="0.35" fill-rule="nonzero"/></g><path fill="#ffffff" d="M 44.378906 35.957031 L 44.378906 47.28125 C 44.378906 47.371094 44.378906 47.371094 44.378906 47.460938 C 44.285156 48.011719 43.820312 48.464844 43.265625 48.464844 L 31.679688 48.464844 C 31.492188 48.464844 31.214844 48.375 31.121094 48.285156 C 31.03125 48.285156 31.03125 48.191406 30.9375 48.191406 C 30.660156 48.011719 30.566406 47.644531 30.566406 47.371094 L 30.566406 35.957031 C 30.566406 35.316406 31.121094 34.859375 31.679688 34.859375 L 43.171875 34.859375 C 43.730469 34.859375 44.285156 35.316406 44.285156 35.863281 C 44.378906 35.863281 44.378906 35.863281 44.378906 35.957031 Z M 44.378906 35.957031 " fill-opacity="1" fill-rule="nonzero"/><path fill="#c64220" d="M 40.300781 39.242188 C 40.113281 38.878906 39.835938 38.605469 39.464844 38.421875 C 39.09375 38.238281 38.722656 38.148438 38.261719 38.148438 L 34.738281 38.148438 L 34.738281 45.636719 L 36.21875 45.636719 L 36.21875 42.988281 L 38.261719 42.988281 C 38.722656 42.988281 39.09375 42.894531 39.464844 42.714844 C 39.835938 42.53125 40.113281 42.257812 40.300781 41.890625 C 40.484375 41.527344 40.578125 41.070312 40.578125 40.613281 C 40.578125 39.972656 40.484375 39.609375 40.300781 39.242188 Z M 38.910156 41.070312 C 38.816406 41.253906 38.722656 41.34375 38.539062 41.433594 C 38.351562 41.617188 38.167969 41.617188 37.980469 41.617188 L 36.21875 41.617188 L 36.21875 39.242188 L 37.980469 39.242188 C 38.167969 39.242188 38.351562 39.335938 38.539062 39.425781 C 38.722656 39.515625 38.816406 39.699219 38.910156 39.792969 C 39 39.972656 39 40.15625 39 40.429688 C 39 40.703125 38.910156 40.886719 38.910156 41.070312 Z M 38.910156 41.070312 " fill-opacity="1" fill-rule="nonzero"/></svg>