<svg xmlns="http://www.w3.org/2000/svg" xmlns:xlink="http://www.w3.org/1999/xlink" width="500" zoomAndPan="magnify" viewBox="0 0 375 374.999991" height="500" preserveAspectRatio="xMidYMid meet" version="1.0"><defs><clipPath id="d6eca731f5"><path d="M 59.089844 59.089844 L 315.589844 59.089844 L 315.589844 315.589844 L 59.089844 315.589844 Z M 59.089844 59.089844 " clip-rule="nonzero"/></clipPath></defs><g clip-path="url(#d6eca731f5)"><path fill="#000000" d="M 188.175781 59.089844 C 223.371094 59.089844 255.253906 73.371094 278.316406 96.433594 C 301.378906 119.496094 315.625 151.339844 315.625 186.539062 C 315.625 221.734375 301.378906 253.578125 278.316406 276.640625 C 255.253906 299.703125 223.371094 313.984375 188.175781 313.984375 C 176.808594 313.984375 165.769531 312.492188 155.238281 309.6875 C 144.890625 306.917969 135.054688 302.871094 125.910156 297.734375 L 59.089844 315.625 L 76.976562 248.804688 C 71.839844 239.660156 67.796875 229.820312 65.0625 219.511719 C 62.257812 208.980469 60.726562 197.90625 60.726562 186.539062 C 60.726562 151.339844 75.011719 119.496094 98.074219 96.433594 C 121.136719 73.371094 152.980469 59.089844 188.175781 59.089844 Z M 273.105469 101.609375 C 251.390625 79.855469 221.367188 66.410156 188.175781 66.410156 C 155.019531 66.410156 125 79.855469 103.246094 101.609375 C 81.53125 123.324219 68.089844 153.382812 68.089844 186.539062 C 68.089844 197.285156 69.472656 207.707031 72.132812 217.617188 C 74.863281 227.890625 78.910156 237.582031 84.082031 246.507812 L 84.445312 249.277344 L 69.4375 305.277344 L 125.4375 290.265625 L 128.207031 290.632812 C 137.167969 295.804688 146.859375 299.847656 157.097656 302.582031 C 167.007812 305.242188 177.429688 306.664062 188.175781 306.664062 C 221.367188 306.664062 251.390625 293.21875 273.105469 271.464844 C 294.855469 249.75 308.300781 219.691406 308.300781 186.539062 C 308.300781 153.382812 294.855469 123.324219 273.105469 101.609375 Z M 273.105469 101.609375 " fill-opacity="1" fill-rule="nonzero"/></g><path fill="#000000" d="M 157.644531 173.820312 C 160.449219 181.945312 167.152344 191.308594 175.277344 199.433594 C 183.402344 207.558594 192.804688 214.300781 200.929688 217.070312 L 210.402344 207.597656 C 212.261719 205.738281 214.554688 204.574219 216.996094 204.097656 C 219.402344 203.625 221.988281 203.878906 224.394531 204.898438 L 226.617188 205.773438 C 233.71875 208.796875 242.027344 212.152344 250.296875 215.539062 L 251.171875 215.902344 C 252.957031 216.597656 254.488281 217.652344 255.726562 219 C 256.964844 220.347656 257.914062 221.953125 258.496094 223.773438 C 259.078125 225.558594 259.222656 227.417969 259.003906 229.238281 L 259.042969 229.238281 C 258.785156 231.058594 258.167969 232.808594 257.148438 234.449219 C 254.777344 238.203125 252.191406 241.445312 249.460938 244.175781 C 238.601562 255.035156 225.121094 258.496094 211.167969 257.21875 C 197.648438 255.945312 183.730469 250.1875 171.488281 242.5 C 163.328125 237.363281 155.894531 231.386719 149.847656 225.339844 L 149.410156 224.867188 C 143.324219 218.816406 137.351562 211.386719 132.214844 203.222656 C 124.523438 191.019531 118.769531 177.101562 117.53125 163.546875 C 116.21875 149.628906 119.679688 136.148438 130.535156 125.253906 C 133.304688 122.519531 136.546875 119.933594 140.300781 117.566406 C 141.90625 116.546875 143.691406 115.925781 145.476562 115.707031 C 147.296875 115.488281 149.15625 115.671875 150.941406 116.21875 C 152.761719 116.835938 154.367188 117.75 155.714844 118.988281 C 157.0625 120.261719 158.117188 121.792969 158.847656 123.542969 L 159.355469 124.78125 C 162.671875 132.941406 165.988281 141.101562 168.9375 148.136719 C 168.976562 148.136719 169.742188 150.101562 169.851562 150.359375 C 170.871094 152.761719 171.125 155.3125 170.652344 157.71875 C 170.179688 160.160156 168.976562 162.453125 167.152344 164.3125 Z M 170.105469 204.644531 C 160.488281 195.027344 152.617188 183.550781 149.957031 173.710938 L 149.410156 171.671875 L 161.945312 159.136719 C 162.746094 158.335938 163.253906 157.351562 163.4375 156.371094 C 163.65625 155.3125 163.546875 154.21875 163.109375 153.199219 L 162.199219 150.941406 C 158.628906 142.453125 155.605469 134.980469 152.542969 127.550781 L 152.035156 126.3125 C 151.742188 125.546875 151.304688 124.890625 150.722656 124.34375 C 150.175781 123.832031 149.484375 123.433594 148.71875 123.214844 C 147.917969 122.957031 147.113281 122.886719 146.386719 122.957031 C 145.621094 123.066406 144.855469 123.324219 144.199219 123.761719 C 140.921875 125.835938 138.117188 128.058594 135.710938 130.464844 C 126.601562 139.609375 123.722656 151.011719 124.816406 162.890625 C 125.945312 175.167969 131.265625 187.996094 138.40625 199.324219 C 143.214844 206.976562 148.863281 213.9375 154.582031 219.691406 L 155.019531 220.128906 C 160.777344 225.886719 167.738281 231.496094 175.386719 236.308594 C 186.753906 243.449219 199.542969 248.804688 211.824219 249.933594 C 223.699219 251.027344 235.140625 248.148438 244.285156 239.003906 C 246.691406 236.597656 248.914062 233.792969 250.953125 230.550781 C 251.390625 229.859375 251.644531 229.128906 251.753906 228.363281 C 251.863281 227.597656 251.792969 226.796875 251.535156 225.996094 C 251.28125 225.230469 250.878906 224.539062 250.371094 223.992188 C 249.859375 223.445312 249.203125 222.972656 248.441406 222.679688 L 247.527344 222.316406 C 239.949219 219.21875 232.410156 216.160156 223.773438 212.515625 L 221.515625 211.605469 C 220.496094 211.203125 219.402344 211.09375 218.382812 211.277344 C 217.359375 211.457031 216.414062 211.96875 215.613281 212.769531 L 203.042969 225.304688 L 201 224.757812 C 191.164062 222.132812 179.6875 214.226562 170.105469 204.644531 Z M 170.105469 204.644531 " fill-opacity="1" fill-rule="nonzero"/></svg>